<?xml version="1.0" encoding="utf-8"?>
<!-- Generator: Adobe Illustrator 23.0.0, SVG Export Plug-In . SVG Version: 6.00 Build 0)  -->
<svg version="1.1" id="Capa_1" xmlns="http://www.w3.org/2000/svg" xmlns:xlink="http://www.w3.org/1999/xlink" x="0px" y="0px"
	 viewBox="0 0 512 512" style="enable-background:new 0 0 512 512;" xml:space="preserve">
<style type="text/css">
	.st0{fill:#FFFFFF;}
</style>
<g>
	<g>
		<g>
			<path class="st0" d="M504.3,417.2L293.7,54.8c-9.7-16.3-23.6-26-38.1-26c-15.1,0-29,9.7-38.1,26L8.2,417.2
				c-9.7,16.3-10.9,33.3-3,46c7.3,12.7,22.4,20,41.7,20h418.6c18.8,0,33.9-7.3,41.7-20C514.5,450.5,513.3,433.6,504.3,417.2z
				 M484.3,450.5c-3,4.8-9.7,7.3-19.4,7.3H46.3c-9.7,0-16.9-3-19.4-7.3c-3-4.8-1.8-12.1,3-20.6L239.3,67.6
				c4.8-8.5,10.9-13.3,16.3-13.3c5.4,0,11.5,4.8,16.3,13.3l209.3,362.4C486.1,438.4,487.3,445.7,484.3,450.5z"/>
		</g>
	</g>
	<g>
		<g>
			<path class="st0" d="M255.6,148c-7.3,0-12.7,5.4-12.7,12.7v168.2c0,7.3,5.4,12.7,12.7,12.7s12.7-5.4,12.7-12.7V160.7
				C268.3,153.5,262.9,148,255.6,148z"/>
		</g>
	</g>
	<g>
		<g>
			<circle class="st0" cx="255.6" cy="392.4" r="22.4"/>
		</g>
	</g>
</g>
</svg>
