<?xml version="1.0" encoding="utf-8"?>
<!-- Generator: Adobe Illustrator 23.0.0, SVG Export Plug-In . SVG Version: 6.00 Build 0)  -->
<svg version="1.1" id="Layer_1" xmlns="http://www.w3.org/2000/svg" xmlns:xlink="http://www.w3.org/1999/xlink" x="0px" y="0px"
	 viewBox="0 0 500 172.7" style="enable-background:new 0 0 500 172.7;" xml:space="preserve">
<style type="text/css">
	.st0{fill:#FFFFFF;}
</style>
<path class="st0" d="M459.6,93.8l2.4,55.3c-4.2,1.9-20,10.3-25.9,10.3h-29.1v-4c-3.3,2.7-9.4,4-15,4h-91.6v-15
	c0-2.1-0.3-2.1-2.1-2.1h-1.6v17.1h-30.2v-17.8c-5.1,2.4-10.6,2.4-15.7,2.4h-3.3v15.4h-36.8l-8.7-10.1l-9.6,10.1h-59.2V93.8h60.2
	l8.6,10.1l9.4-10.1h40.5c4.7,0,12.4,0.7,15.7,4v-4h36.1c3.7,0,10.6,0.7,15.4,4v-4h54.4v4c3.1-2.6,8.7-4,13.8-4h30.4v4
	c3.3-2.3,8-4,14.1-4L459.6,93.8L459.6,93.8z M251.4,134.2c9.6,0,19.4-2.6,19.4-15.7c0-12.7-10-15.4-18.7-15.4h-35.8l-14.5,15.4
	l-13.6-15.4h-45.2v46.7h44.5l14.3-15.3l13.8,15.3h21.6v-15.6H251.4z M319,132.3c-1-1.4-3-3.1-5.8-4c3.1-1,8-5.1,8-12.4
	c0-5.4-1.9-8.4-5.6-10.5c-3.7-1.9-8-2.3-13.8-2.3h-25.7v46.7h11.3v-17h12c4,0,6.3,0.4,8,2.1c1.9,2.3,1.9,6.3,1.9,9.4v5.5h11.2v-9
	C320.7,136.7,320.4,134.6,319,132.3L319,132.3z M365,112.9v-9.8h-37.3v46.7H365v-9.5h-26.4v-9.4h25.8v-9.4h-25.8v-8.6H365z
	 M393.5,149.9c11.3,0,17.8-4.6,17.8-14.6c0-4.7-1.4-7.7-3.3-10.1c-2.8-2.3-6.8-3.7-13.1-3.7h-6.1c-1.6,0-3-0.3-4.4-0.7
	c-1.2-0.5-2.3-1.6-2.3-3.3c0-1.6,0.4-2.6,1.7-3.7c0.9-0.7,2.3-0.7,4.4-0.7h20.6v-9.9h-22.3c-12,0-16.1,7.3-16.1,14
	c0,14.8,13.1,14.1,23.4,14.5c2.1,0,3.3,0.4,4,1.1c0.7,0.5,1.4,1.9,1.4,3.3c0,1.2-0.7,2.3-1.4,3c-1.1,0.7-2.3,1-4.4,1h-21.6v9.9
	L393.5,149.9L393.5,149.9z M437.3,149.9c11.3,0,17.8-4.6,17.8-14.6c0-4.7-1.4-7.7-3.3-10.1c-2.8-2.3-6.8-3.7-13.1-3.7h-6.1
	c-1.6,0-3-0.3-4.4-0.7c-1.2-0.5-2.3-1.6-2.3-3.3c0-1.6,0.7-2.6,1.7-3.7c0.9-0.7,2.3-0.7,4.4-0.7h20.6v-9.9h-22.3
	c-11.7,0-16.1,7.3-16.1,14c0,14.8,13.1,14.1,23.4,14.5c2.1,0,3.3,0.4,4,1.1c0.7,0.5,1.4,1.9,1.4,3.3c0,1.2-0.7,2.3-1.4,3
	c-0.7,0.7-2.3,1-4.4,1h-21.6v9.9L437.3,149.9L437.3,149.9z M306.6,113.8c1.4,0.7,2.3,2.1,2.3,4c0,2.1-0.9,3.7-2.3,4.7
	c-1.7,0.7-3.3,0.7-5.4,0.7l-13.6,0.4V113h13.6C303.3,113,305.2,113,306.6,113.8z M258.8,41.6c-1.7,1-3.3,1-5.6,1h-13.8V32.3h13.8
	c1.9,0,4.2,0,5.6,0.7c1.4,0.9,2.1,2.3,2.1,4.4C260.9,39.3,260.2,41,258.8,41.6L258.8,41.6z M348.1,30.6l7.7,18.5h-15.4L348.1,30.6z
	 M226.3,145.9L209,126.6l17.3-18.3V145.9L226.3,145.9z M252.1,112.9c4,0,6.6,1.6,6.6,5.6s-2.6,6.3-6.6,6.3h-14.8v-11.9L252.1,112.9
	L252.1,112.9z M74.1,49.1L82,30.6l7.7,18.5H74.1L74.1,49.1z M154.1,112.9h28.1l12.4,13.6l-12.7,13.8h-27.7v-9.4h24.8v-9.4h-24.8
	L154.1,112.9L154.1,112.9z M155.1,70.4l-3.3,8.4h-19.7l-3.3-8v8H90.9l-4-10.6h-9.6l-4.4,10.6H39l14.5-34.4l13.6-31.1h29.1l4,7.7
	v-7.7h34l7.7,16.6l7.5-16.6h108.6c5.1,0,9.4,0.9,12.7,3.7v-3.7h29.8V17c4.9-2.8,11.3-3.7,18.7-3.7h43.1l4,7.7v-7.7h31.8l4.7,7.7
	v-7.7H434v65.4h-31.4l-6.1-10v10h-39.1L353,68.1h-9.6L339,78.7h-20.4c-8,0-14-1.9-18-4v4h-48.5v-15c0-2.1-0.3-2.4-1.7-2.4h-1.6v17.4
	h-93.7L155.1,70.4L155.1,70.4z M302.9,28c-5.1,5.1-5.9,11.3-6.1,18.3c0,8.4,2.1,13.8,5.8,17.8c4,4,11,5.2,16.4,5.2h13.1l4.4-10.3
	h23.4l4.4,10.3h22.7V34.2L408,69.3H424V22.6h-11.5V55l-19.7-32.5h-17.3v44.2l-18.8-44.2h-16.6L324,59.4H319c-3,0-6.1-0.7-7.7-2.3
	c-2.1-2.4-3-6.1-3-11.2c0-4.9,0.9-8.6,3-10.6c2.3-1.9,4.7-2.6,8.7-2.6h10.6V22.5H320C312.3,22.5,306.2,24.3,302.9,28L302.9,28z
	 M279.9,22.5v46.8h11.3V22.5C291.2,22.5,279.9,22.5,279.9,22.5z M228.4,22.5v46.8h11V52.4h12c4,0,6.6,0.3,8.4,1.9
	c1.9,2.4,1.6,6.5,1.6,9.1v5.9h11.5v-9.2c0-4-0.3-6.1-2.1-8.4c-1-1.4-3-3-5.4-4c3.1-1.4,8-5.1,8-12.4c0-5.4-2.3-8.4-5.9-10.7
	c-3.7-2.1-7.7-2.1-13.4-2.1L228.4,22.5L228.4,22.5z M182.8,22.6v46.8h37.5v-9.6h-26.2v-9.4H220v-9.6h-25.8v-8.4h26.2v-9.8
	L182.8,22.6L182.8,22.6z M137.1,69.3h9.6l16.4-36.6v36.6h11.3V22.6h-18.3l-13.8,31.8l-14.7-31.8h-18v44.2L90.5,22.6H74L53.9,69.3h12
	L70.1,59h23.6l4.2,10.3h22.9V32.7L137.1,69.3z"/>
</svg>
