<?xml version="1.0" encoding="utf-8"?>
<!-- Generator: Adobe Illustrator 19.0.1, SVG Export Plug-In . SVG Version: 6.00 Build 0)  -->
<svg version="1.1" id="Capa_1" xmlns="http://www.w3.org/2000/svg" xmlns:xlink="http://www.w3.org/1999/xlink" x="0px" y="0px"
	 viewBox="31 -215.6 916 511.6" style="enable-background:new 31 -215.6 916 511.6;" xml:space="preserve">
<style type="text/css">
	.st0{fill:#4E5D6C;}
</style>
<g>
	<g>
		<rect x="270.6" y="-160.8" class="st0" width="17.7" height="401.7"/>
		<rect x="215.2" y="-160.8" class="st0" width="8.8" height="401.7"/>
		<rect x="394.8" y="-160.8" class="st0" width="8.9" height="401.7"/>
		<rect x="334.9" y="-160.8" class="st0" width="8.9" height="401.7"/>
		<rect x="95.3" y="-160.8" class="st0" width="9.1" height="401.7"/>
		<rect x="155.3" y="-160.8" class="st0" width="8.9" height="401.7"/>
		<rect x="31" y="-160.8" class="st0" width="18" height="402"/>
		<rect x="454.6" y="-160.8" class="st0" width="8.9" height="401.7"/>
		<rect x="749.4" y="-160.8" class="st0" width="18" height="401.7"/>
		<rect x="804.9" y="-160.8" class="st0" width="26.8" height="401.7"/>
		<rect x="873.6" y="-160.8" class="st0" width="9.1" height="401.7"/>
		<rect x="929" y="-160.8" class="st0" width="18" height="402"/>
		<rect x="629.7" y="-160.8" class="st0" width="18" height="401.7"/>
		<rect x="689.5" y="-160.8" class="st0" width="18" height="401.7"/>
		<rect x="569.8" y="-160.8" class="st0" width="18" height="401.7"/>
		<rect x="509.9" y="-160.8" class="st0" width="18" height="401.7"/>
	</g>
</g>
</svg>
