<?xml version="1.0" encoding="utf-8"?>
<!-- Generator: Adobe Illustrator 23.0.0, SVG Export Plug-In . SVG Version: 6.00 Build 0)  -->
<svg version="1.1" id="Layer_1" xmlns="http://www.w3.org/2000/svg" xmlns:xlink="http://www.w3.org/1999/xlink" x="0px" y="0px"
	 viewBox="0 0 500 295.4" style="enable-background:new 0 0 500 295.4;" xml:space="preserve">
<style type="text/css">
	.st0{fill:#4E5D6C;}
</style>
<path class="st0" d="M447.2,140.2c5.5,0,8.3,4,8.3,11.8c0,11.8-5,20.4-12.3,20.4c-5.5,0-8.3-4-8.3-12.1
	C434.8,148.5,440.1,140.2,447.2,140.2L447.2,140.2z M354,168.7c0-6,4.5-9.3,13.6-9.3c1,0,1.8,0.2,3.5,0.2c-0.2,9.1-5,15.1-11.3,15.1
	C356.3,174.7,354,172.5,354,168.7L354,168.7z M243.3,146.3c0,0.8,0,1.8,0,3h-17.6c1.5-7,5-10.8,10.1-10.8
	C240.5,138.5,243.3,141.2,243.3,146.3L243.3,146.3z M352,0c81.6,0,147.7,66.1,147.7,147.7S433.6,295.4,352,295.4
	c-35.4,0-67.6-12.4-93-33.2c19.4-18.7,34.2-42.2,42.2-68.7h-12.3c-7.7,23.6-21.2,44.4-38.8,61.2c-17.5-16.8-30.9-37.6-38.5-61.1
	h-12.3c7.9,26.4,22.5,49.9,41.7,68.6c-25.4,20.5-57.4,33.2-92.6,33.2c-81.6,0-147.7-66.1-147.7-147.7S66.8,0,148.4,0
	c35.2,0,67.3,12.7,92.6,33.3c-19.3,18.7-33.8,42.2-41.7,68.5h12.3c7.7-23.5,21-44.3,38.5-61c17.6,16.7,31.1,37.5,38.8,61.1h12.3
	c-7.9-26.5-22.8-50-42.2-68.7C284.4,12.4,316.6,0,352,0L352,0z M67.3,186.6h15.6l12.3-74.3H70.6l-15.1,46.1l-0.8-46.1H32.1
	l-12.3,74.3h14.6l9.6-56.6l1.3,56.6H56l20.4-57.1L67.3,186.6z M134.3,179.8l0.5-3.8l3.5-21.4c1-6.8,1.3-9.1,1.3-12.1
	c0-11.6-7.3-17.6-20.9-17.6c-5.8,0-11.1,0.8-18.9,3l-2.3,13.6l1.5-0.3l2.3-0.7c3.5-1,8.6-1.5,13.1-1.5c7.3,0,10.1,1.5,10.1,5.5
	c0,1,0,1.8-0.5,3.8c-2.5-0.2-4.8-0.5-6.5-0.5c-17.6,0-27.7,8.6-27.7,23.4c0,9.8,5.8,16.4,14.3,16.4c7.3,0,12.6-2.3,16.6-7.3
	l-0.2,6.3h13.1l0.2-1.5l0.2-2.3L134.3,179.8z M166.7,150.6c-6.8-3-7.6-3.8-7.6-6.5c0-3.3,2.8-4.8,7.8-4.8c3,0,7.3,0.3,11.3,0.8
	l2.3-13.8c-4-0.8-10.3-1.3-13.8-1.3c-17.6,0-23.9,9.3-23.7,20.4c0,7.6,3.5,12.8,11.8,16.9c6.5,3,7.6,4,7.6,6.5
	c0,3.8-2.8,5.5-9.1,5.5c-4.8,0-9.1-0.8-14.1-2.3l-2.3,13.8l0.8,0.2l2.8,0.5c1,0.2,2.3,0.5,4.3,0.5c3.5,0.5,6.5,0.5,8.6,0.5
	c16.6,0,24.4-6.3,24.4-20.1C177.8,159.1,174.5,154.4,166.7,150.6L166.7,150.6z M201.5,173c-3.8,0-5.3-1.3-5.3-4.3
	c0-0.8,0-1.5,0.2-2.5l4.3-25.2h8.1l2-14.9h-8.1l1.8-9.1h-15.6l-6.8,41.3l-0.8,4.8l-1,6c-0.2,1.8-0.5,3.8-0.5,5.3
	c0,8.8,4.5,13.3,12.6,13.3c3.5,0,7.1-0.5,11.3-2l2-13.3C204.7,173,203.2,173,201.5,173L201.5,173z M238.2,174
	c-9.1,0-13.8-3.5-13.8-10.6c0-0.5,0-1,0.2-1.8h31.2c1.5-6.3,2-10.6,2-15.1c0-13.3-8.3-21.9-21.4-21.9c-15.9,0-27.4,15.4-27.4,36
	c0,17.9,9.1,27.2,26.7,27.2c5.8,0,10.8-0.8,16.4-2.5l2.5-15.1C249,173,244,174,238.2,174L238.2,174z M288.3,143.3h1
	c1.5-7.3,3.5-12.6,6-17.4l-0.5-0.2h-1.5c-5.3,0-8.3,2.5-13.1,9.8l1.5-9.3h-14.3l-9.8,60.4h15.9C279.2,149.6,280.8,143.3,288.3,143.3
	L288.3,143.3z M334.1,185.8l2.8-16.9c-5,2.5-9.6,3.8-13.3,3.8c-9.3,0-14.9-6.8-14.9-18.1c0-16.4,8.3-27.9,20.1-27.9
	c4.5,0,8.6,1.3,14.1,4l2.8-16.1c-1.5-0.5-2-0.8-4-1.5l-6.3-1.5c-2-0.5-4.5-0.8-7.3-0.8c-20.9,0-35.5,18.6-35.5,45
	c0,19.9,10.6,32.2,27.7,32.2C324.6,188.1,328.4,187.3,334.1,185.8L334.1,185.8z M384,176l3.3-21.4c1.3-6.8,1.3-9.1,1.3-12.1
	c0-11.6-7-17.6-20.6-17.6c-5.8,0-11.1,0.8-18.9,3l-2.3,13.6l1.5-0.3l2-0.7c3.5-1,8.8-1.5,13.3-1.5c7.3,0,10.1,1.5,10.1,5.5
	c0,1-0.2,1.8-0.8,3.8c-2.3-0.2-4.5-0.5-6.3-0.5c-17.6,0-27.7,8.6-27.7,23.4c0,9.8,5.8,16.4,14.4,16.4c7.3,0,12.6-2.3,16.6-7.3
	l-0.3,6.3h13.1v-1.5l0.2-2.3l0.5-3L384,176z M403.6,186.6c5.8-37,7.3-43.3,14.8-43.3h1c1.5-7.3,3.5-12.6,6-17.4l-0.5-0.2h-1.5
	c-5.3,0-8.3,2.5-13.1,9.8l1.5-9.3h-14.3l-9.6,60.4L403.6,186.6L403.6,186.6z M451.4,186.6h14.8l12.1-74.3h-15.6l-3.5,21.1
	c-4.3-5.5-8.8-8.3-15.1-8.3c-13.8,0-25.7,17.1-25.7,37.2c0,15.1,7.6,24.9,19.1,24.9c5.8,0,10.3-2,14.6-6.5L451.4,186.6z
	 M105.1,168.7c0-6,4.5-9.3,13.4-9.3c1.3,0,2,0.2,3.5,0.2c-0.2,9.1-4.8,15.1-11.3,15.1C107.1,174.8,105.1,172.5,105.1,168.7
	L105.1,168.7z"/>
</svg>
