<?xml version="1.0" encoding="utf-8"?>
<!-- Generator: Adobe Illustrator 23.0.0, SVG Export Plug-In . SVG Version: 6.00 Build 0)  -->
<svg version="1.1" id="Layer_1" xmlns="http://www.w3.org/2000/svg" xmlns:xlink="http://www.w3.org/1999/xlink" x="0px" y="0px"
	 viewBox="0 0 500 159.6" style="enable-background:new 0 0 500 159.6;" xml:space="preserve">
<style type="text/css">
	.st0{fill:#FFFFFF;}
</style>
<path class="st0" d="M161.6,15.8h35.2l-52.3,128.3l-35.1,0l-27-102.2c19.2,7.9,36.3,25.1,43.3,43.7l3.5,17.8L161.6,15.8z
	 M189.4,144.2l20.8-128.6h33.2l-20.8,128.6H189.4L189.4,144.2z M310.3,67.3c19.2,9.2,28,20.3,27.9,34.9
	c-0.3,26.7-22.9,43.9-57.8,43.9c-14.9-0.2-29.2-3.3-37-6.9l4.6-28.8l4.3,2c10.9,4.8,18,6.8,31.3,6.8c9.5,0,19.8-3.9,19.9-12.6
	c0.1-5.6-4.3-9.7-17.2-16c-12.6-6.1-29.3-16.4-29.1-34.9c0.2-25,23.3-42.4,56.1-42.4c12.9,0,23.2,2.8,29.7,5.4l-4.5,27.9l-3-1.5
	c-6.1-2.6-14-5.1-24.8-4.9c-13,0-19,5.7-19,11.1C291.6,57.4,298.7,61.3,310.3,67.3L310.3,67.3z M428.1,15.8L455,144.3h-30.8
	c0,0-3.1-14.8-4-19.3c-4.8,0-38.7-0.1-42.5-0.1c-1.3,3.5-7,19.3-7,19.3h-34.9l49.3-117.8c3.5-8.4,9.4-10.7,17.4-10.7L428.1,15.8
	L428.1,15.8z M387.2,98.6c6.5,0,22.4,0,27.6,0c-1.3-6.4-7.7-37.1-7.7-37.1l-2.2-11.1c-1.7,4.8-4.6,12.6-4.4,12.3
	C400.4,62.7,390,91.2,387.2,98.6z M125.6,85.6C112,47.7,81.8,27.6,45,18.3l0.4-2.7H99c7.2,0.3,13,2.7,15.1,10.8L125.6,85.6z"/>
</svg>
